<svg width="1200" height="700" viewBox="0 0 1200 700" fill="none" xmlns="http://www.w3.org/2000/svg">
  <defs>
    <linearGradient id="bg" x1="0" y1="0" x2="1200" y2="700" gradientUnits="userSpaceOnUse">
      <stop offset="0" stop-color="#EEF5FF"/>
      <stop offset="1" stop-color="#DCEBFF"/>
    </linearGradient>
    <linearGradient id="card" x1="0" y1="0" x2="1" y2="1">
      <stop offset="0" stop-color="#FFFFFF" stop-opacity="0.96"/>
      <stop offset="1" stop-color="#F6FAFF" stop-opacity="0.9"/>
    </linearGradient>
  </defs>
  <rect width="1200" height="700" fill="url(#bg)"/>
  <circle cx="940" cy="160" r="170" fill="#C8DFFF" fill-opacity="0.45"/>
  <circle cx="1050" cy="620" r="210" fill="#B6D3FF" fill-opacity="0.35"/>
  <rect x="140" y="120" width="460" height="460" rx="32" fill="url(#card)" stroke="#C7DBFA"/>
  <rect x="200" y="190" width="340" height="42" rx="21" fill="#EAF3FF"/>
  <rect x="200" y="252" width="280" height="28" rx="14" fill="#EFF6FF"/>
  <rect x="200" y="300" width="240" height="28" rx="14" fill="#EFF6FF"/>
  <rect x="200" y="362" width="320" height="140" rx="20" fill="#FFFFFF" stroke="#D4E4FB"/>
  <circle cx="300" cy="430" r="36" fill="#D7E9FF"/>
  <rect x="350" y="405" width="140" height="18" rx="9" fill="#EAF3FF"/>
  <rect x="350" y="432" width="110" height="14" rx="7" fill="#EEF6FF"/>
  <path d="M760 500C760 431.517 815.517 376 884 376H924C992.483 376 1048 431.517 1048 500V580H760V500Z" fill="#3C6EA8"/>
  <circle cx="904" cy="322" r="72" fill="#F7D5B3"/>
  <rect x="820" y="270" width="170" height="80" rx="40" fill="#F4A460"/>
  <rect x="760" y="560" width="310" height="60" rx="16" fill="#2F5E93"/>
  <rect x="792" y="584" width="98" height="10" rx="5" fill="#9FC6F4"/>
  <rect x="905" y="584" width="140" height="10" rx="5" fill="#9FC6F4"/>
</svg>
